<svg width="820" height="168" viewBox="0 0 820 168" fill="none" xmlns="http://www.w3.org/2000/svg">
<path fill-rule="evenodd" clip-rule="evenodd" d="M142.681 43.8142C142.588 43.4886 142.539 43.145 142.539 42.7899C142.539 42.0189 142.772 41.3022 143.17 40.7061L73.1186 0.261719L0 42.4768V122.842C1.07659 122.857 2.04353 123.326 2.71848 124.065L68.8348 86.1557C68.7732 85.8859 68.7406 85.6049 68.7406 85.3164C68.7406 83.244 70.4206 81.5639 72.4931 81.5639C73.4883 81.5639 74.393 81.9514 75.0647 82.5837L142.681 43.8142ZM3.69837 126.594C3.69837 127.365 3.46589 128.082 3.0672 128.678L68.9263 166.701C69.3547 165.393 70.4827 164.402 71.868 164.17L71.868 89.017C70.7962 88.8373 69.8784 88.2033 69.3195 87.3197L3.397 125.118C3.59098 125.571 3.69837 126.07 3.69837 126.594ZM76.2455 85.3164C76.2455 87.1756 74.8934 88.719 73.1188 89.0169L73.1188 164.17C74.7209 164.439 75.9788 165.723 76.2081 167.338L146.237 126.907V46.5419C144.99 46.5242 143.89 45.8979 143.22 44.9465L75.8253 83.5894C76.0938 84.1063 76.2455 84.6936 76.2455 85.3164Z" fill="url(#paint0_linear_621_329)"/>
<path fill-rule="evenodd" clip-rule="evenodd" d="M146.237 46.5407C144.99 46.523 143.889 45.8967 143.22 44.9453L75.825 83.5882C76.0935 84.1051 76.2452 84.6924 76.2452 85.3152C76.2452 87.1744 74.8931 88.7178 73.1185 89.0157L73.1185 164.169C74.7206 164.438 75.9785 165.722 76.2078 167.337L146.237 126.906V46.5407ZM68.926 166.7L3.06689 128.677C3.46558 128.08 3.69807 127.364 3.69807 126.593C3.69807 126.069 3.59068 125.57 3.3967 125.117L69.3192 87.3185C69.8781 88.2021 70.7959 88.8361 71.8677 89.0158L71.8677 164.169C70.4824 164.401 69.3544 165.392 68.926 166.7Z" fill="url(#paint1_linear_621_329)"/>
<path fill-rule="evenodd" clip-rule="evenodd" d="M143.22 44.9453L75.825 83.588C76.0935 84.105 76.2452 84.6923 76.2452 85.3151C76.2452 87.1744 74.8929 88.7179 73.1182 89.0156L73.1182 128.469L73.1182 164.169C74.7204 164.437 75.9784 165.722 76.2077 167.337L146.237 126.906V46.5406C144.989 46.523 143.889 45.8967 143.22 44.9453Z" fill="url(#paint2_linear_621_329)"/>
<path d="M790.476 127.287C784.906 127.287 779.871 126.028 775.37 123.511C770.945 120.917 767.398 117.446 764.727 113.097C762.134 108.672 760.837 103.751 760.837 98.3348C760.837 92.9181 762.134 88.0737 764.727 83.8014C767.321 79.4528 770.869 76.0197 775.37 73.5022C779.871 70.9083 784.868 69.6113 790.361 69.6113C796.007 69.6113 801.042 70.9083 805.467 73.5022C809.968 76.0197 813.515 79.4528 816.109 83.8014C818.703 88.0737 820 92.9181 820 98.3348C820 103.751 818.703 108.672 816.109 113.097C813.515 117.446 809.968 120.917 805.467 123.511C801.042 126.028 796.045 127.287 790.476 127.287ZM790.361 113.326C793.184 113.326 795.663 112.716 797.8 111.495C800.012 110.198 801.69 108.443 802.835 106.231C804.055 103.942 804.666 101.348 804.666 98.4492C804.666 95.5502 804.055 92.9944 802.835 90.782C801.614 88.5696 799.936 86.853 797.8 85.6324C795.663 84.3354 793.184 83.687 790.361 83.687C787.615 83.687 785.173 84.3354 783.037 85.6324C780.901 86.853 779.223 88.5696 778.002 90.782C776.781 92.9944 776.171 95.5502 776.171 98.4492C776.171 101.348 776.781 103.942 778.002 106.231C779.223 108.443 780.901 110.198 783.037 111.495C785.173 112.716 787.615 113.326 790.361 113.326Z" fill="black"/>
<path d="M668.694 126.142V70.869H683.685V126.142H668.694ZM704.741 126.142V93.5273C704.741 90.3231 703.711 87.8436 701.652 86.089C699.668 84.258 697.189 83.3425 694.213 83.3425C692.23 83.3425 690.437 83.7621 688.835 84.6013C687.233 85.3642 685.974 86.5086 685.058 88.0344C684.143 89.5602 683.685 91.3912 683.685 93.5273L677.849 90.6664C677.849 86.3941 678.764 82.694 680.595 79.5661C682.503 76.4382 685.058 74.035 688.263 72.3566C691.467 70.602 695.091 69.7246 699.134 69.7246C702.949 69.7246 706.42 70.602 709.548 72.3566C712.676 74.035 715.155 76.4382 716.986 79.5661C718.817 82.6177 719.733 86.3178 719.733 90.6664V126.142H704.741ZM740.789 126.142V93.5273C740.789 90.3231 739.759 87.8436 737.699 86.089C735.715 84.258 733.236 83.3425 730.261 83.3425C728.353 83.3425 726.561 83.7621 724.882 84.6013C723.28 85.3642 722.021 86.5086 721.106 88.0344C720.19 89.5602 719.733 91.3912 719.733 93.5273L711.15 91.4674C711.455 87.0426 712.637 83.2281 714.697 80.0238C716.757 76.7434 719.466 74.2258 722.822 72.4711C726.179 70.6401 729.917 69.7246 734.037 69.7246C738.157 69.7246 741.857 70.602 745.137 72.3566C748.418 74.035 751.012 76.4763 752.919 79.6805C754.826 82.8847 755.78 86.6993 755.78 91.1241V126.142H740.789Z" fill="black"/>
<path d="M636.65 127.287C630.852 127.287 625.703 126.066 621.202 123.625C616.7 121.108 613.115 117.674 610.445 113.326C607.851 108.977 606.554 104.018 606.554 98.4492C606.554 92.9563 607.813 88.0737 610.33 83.8014C612.924 79.4528 616.433 76.0197 620.858 73.5022C625.283 70.9083 630.204 69.6113 635.62 69.6113C640.961 69.6113 645.653 70.832 649.696 73.2733C653.816 75.6383 657.02 78.9188 659.309 83.1148C661.674 87.2345 662.856 91.9263 662.856 97.1904C662.856 98.1822 662.78 99.2121 662.627 100.28C662.551 101.272 662.36 102.416 662.055 103.713L615.594 103.828V92.613L655.075 92.4985L649.009 97.1904C648.857 93.9099 648.247 91.1634 647.179 88.951C646.187 86.7386 644.699 85.0602 642.715 83.9158C640.808 82.6952 638.443 82.0848 635.62 82.0848C632.645 82.0848 630.051 82.7715 627.839 84.1447C625.626 85.4416 623.91 87.3108 622.689 89.7521C621.545 92.1171 620.973 94.9398 620.973 98.2203C620.973 101.577 621.583 104.514 622.804 107.032C624.101 109.473 625.932 111.38 628.297 112.754C630.662 114.051 633.408 114.699 636.536 114.699C639.359 114.699 641.914 114.241 644.203 113.326C646.492 112.334 648.475 110.885 650.154 108.977L658.965 117.789C656.295 120.917 653.015 123.282 649.124 124.884C645.309 126.486 641.152 127.287 636.65 127.287Z" fill="black"/>
<path d="M569.718 127.286C564.606 127.286 560.029 126.027 555.985 123.509C551.942 120.992 548.738 117.559 546.373 113.21C544.084 108.862 542.94 103.979 542.94 98.5624C542.94 93.0695 544.084 88.1488 546.373 83.8002C548.738 79.4516 551.904 76.0186 555.871 73.501C559.914 70.9834 564.53 69.7246 569.718 69.7246C573.685 69.7246 577.232 70.5256 580.36 72.1277C583.564 73.7298 586.12 75.9804 588.027 78.8795C590.011 81.7022 591.079 84.9064 591.232 88.4921V108.175C591.079 111.761 590.049 115.003 588.142 117.902C586.235 120.801 583.679 123.09 580.475 124.768C577.271 126.447 573.685 127.286 569.718 127.286ZM572.235 113.439C575.058 113.439 577.499 112.829 579.559 111.608C581.695 110.311 583.336 108.557 584.48 106.344C585.701 104.055 586.311 101.423 586.311 98.448C586.311 95.549 585.701 92.9932 584.48 90.7808C583.336 88.4921 581.695 86.7374 579.559 85.5167C577.499 84.2198 575.096 83.5713 572.35 83.5713C569.527 83.5713 567.048 84.2198 564.911 85.5167C562.852 86.8137 561.211 88.5684 559.991 90.7808C558.846 92.9932 558.274 95.549 558.274 98.448C558.274 101.423 558.846 104.055 559.991 106.344C561.211 108.557 562.89 110.311 565.026 111.608C567.162 112.829 569.565 113.439 572.235 113.439ZM600.387 126.142H585.51V111.265L587.913 97.7614L585.395 84.4868V43.4043H600.387V126.142Z" fill="black"/>
<path d="M514.441 127.287C509.177 127.287 504.409 126.066 500.136 123.625C495.94 121.183 492.622 117.865 490.181 113.669C487.739 109.473 486.519 104.743 486.519 99.4787C486.519 94.2146 487.701 89.5227 490.066 85.403C492.431 81.2071 495.673 77.8884 499.793 75.4471C503.989 73.0058 508.643 71.7852 513.754 71.7852C518.637 71.7852 522.909 72.8914 526.571 75.1038C530.309 77.2399 533.208 80.2153 535.268 84.0298C537.404 87.8443 538.472 92.2311 538.472 97.1899C538.472 97.6477 538.434 98.258 538.358 99.0209C538.282 99.7075 538.167 100.585 538.015 101.653H490.638V96.6178H534.696L532.751 98.2199C532.903 94.0239 532.217 90.3619 530.691 87.234C529.165 84.0298 526.953 81.5504 524.054 79.7957C521.155 78.041 517.683 77.1636 513.64 77.1636C509.444 77.1636 505.744 78.1173 502.54 80.0245C499.335 81.8555 496.818 84.4113 494.987 87.6918C493.232 90.9723 492.355 94.7868 492.355 99.1354C492.355 103.713 493.27 107.718 495.101 111.151C497.009 114.508 499.641 117.14 502.997 119.047C506.354 120.878 510.283 121.794 514.784 121.794C518.217 121.794 521.383 121.183 524.282 119.963C527.258 118.666 529.737 116.759 531.721 114.241L535.612 118.017C533.17 120.916 530.081 123.205 526.342 124.883C522.68 126.486 518.713 127.287 514.441 127.287Z" fill="black"/>
<path d="M396.941 126.142V72.9295H402.777V126.142H396.941ZM434.247 126.142V93.0703C434.247 88.2639 432.798 84.4113 429.898 81.5122C427.076 78.6132 423.452 77.1636 419.027 77.1636C416.052 77.1636 413.343 77.8121 410.902 79.1091C408.461 80.406 406.477 82.237 404.951 84.602C403.502 86.967 402.777 89.7135 402.777 92.8414L399.802 92.1548C399.802 88.0351 400.679 84.4494 402.434 81.3978C404.265 78.3462 406.706 75.9811 409.758 74.3027C412.886 72.6244 416.357 71.7852 420.171 71.7852C423.986 71.7852 427.381 72.6244 430.356 74.3027C433.332 75.9811 435.697 78.3462 437.451 81.3978C439.206 84.4494 440.083 88.0351 440.083 92.1548V126.142H434.247ZM471.553 126.142V93.0703C471.553 88.2639 470.104 84.4113 467.205 81.5122C464.382 78.6132 460.758 77.1636 456.333 77.1636C453.358 77.1636 450.611 77.8121 448.094 79.1091C445.652 80.406 443.707 82.237 442.258 84.602C440.808 86.967 440.083 89.7135 440.083 92.8414L436.536 92.1548C436.612 87.9588 437.566 84.3731 439.397 81.3978C441.304 78.3462 443.822 75.9811 446.949 74.3027C450.077 72.6244 453.549 71.7852 457.363 71.7852C461.178 71.7852 464.573 72.6244 467.548 74.3027C470.523 75.9811 472.888 78.3843 474.643 81.5122C476.474 84.5638 477.389 88.1495 477.389 92.2692V126.142H471.553Z" fill="black"/>
<path d="M362.53 127.285C358.258 127.285 354.444 126.293 351.087 124.31C347.73 122.326 345.098 119.579 343.191 116.07C341.36 112.561 340.444 108.517 340.444 103.94V72.9277H346.281V103.711C346.281 107.297 346.929 110.463 348.226 113.209C349.599 115.879 351.506 117.977 353.948 119.503C356.389 121.029 359.25 121.792 362.53 121.792C367.413 121.792 371.304 120.152 374.203 116.871C377.178 113.514 378.666 109.128 378.666 103.711V72.9277H384.502V103.94C384.502 108.517 383.549 112.561 381.641 116.07C379.81 119.579 377.216 122.326 373.86 124.31C370.579 126.293 366.803 127.285 362.53 127.285Z" fill="black"/>
<path d="M322.115 126.141V45.8066H327.951V126.141H322.115Z" fill="black"/>
<path d="M288.237 127.287C282.973 127.287 278.205 126.066 273.933 123.625C269.737 121.183 266.418 117.865 263.977 113.669C261.536 109.473 260.315 104.743 260.315 99.4787C260.315 94.2146 261.497 89.5227 263.862 85.403C266.227 81.2071 269.47 77.8884 273.59 75.4471C277.786 73.0058 282.439 71.7852 287.551 71.7852C292.433 71.7852 296.706 72.8914 300.368 75.1038C304.106 77.2399 307.005 80.2153 309.065 84.0298C311.201 87.8443 312.269 92.2311 312.269 97.1899C312.269 97.6477 312.231 98.258 312.154 99.0209C312.078 99.7075 311.964 100.585 311.811 101.653H264.435V96.6178H308.492L306.547 98.2199C306.7 94.0239 306.013 90.3619 304.487 87.234C302.961 84.0298 300.749 81.5504 297.85 79.7957C294.951 78.041 291.48 77.1636 287.436 77.1636C283.24 77.1636 279.54 78.1173 276.336 80.0245C273.132 81.8555 270.614 84.4113 268.783 87.6918C267.029 90.9723 266.151 94.7868 266.151 99.1354C266.151 103.713 267.067 107.718 268.898 111.151C270.805 114.508 273.437 117.14 276.794 119.047C280.151 120.878 284.079 121.794 288.581 121.794C292.014 121.794 295.18 121.183 298.079 119.963C301.054 118.666 303.534 116.759 305.517 114.241L309.408 118.017C306.967 120.916 303.877 123.205 300.139 124.883C296.477 126.486 292.51 127.287 288.237 127.287Z" fill="black"/>
<path d="M203.839 90.3226V85.173H227.985C233.707 85.173 238.094 83.7234 241.145 80.8244C244.197 77.9254 245.723 74.0727 245.723 69.2664C245.723 64.5363 244.197 60.7218 241.145 57.8228C238.17 54.9237 233.783 53.4742 227.985 53.4742H203.839V48.0957H227.756C232.792 48.0957 237.102 49.0112 240.688 50.8422C244.273 52.5969 247.02 55.0763 248.927 58.2805C250.834 61.4084 251.788 65.0704 251.788 69.2664C251.788 73.4623 250.834 77.1624 248.927 80.3667C247.02 83.4946 244.273 85.9359 240.688 87.6906C237.102 89.4452 232.792 90.3226 227.756 90.3226H203.839ZM200.177 126.141V48.0957H206.242V126.141H200.177ZM249.614 126.141L219.402 88.9494L225.468 87.3473L257.51 126.141H249.614Z" fill="black"/>
<defs>
<linearGradient id="paint0_linear_621_329" x1="112.519" y1="25.9035" x2="-0.0542132" y2="125.343" gradientUnits="userSpaceOnUse">
<stop stop-color="#845AE0"/>
<stop offset="1" stop-color="#4F3686"/>
</linearGradient>
<linearGradient id="paint1_linear_621_329" x1="72.815" y1="89.3905" x2="67.7683" y2="155.849" gradientUnits="userSpaceOnUse">
<stop stop-color="#9D7BE6"/>
<stop offset="1" stop-color="#E6DEF9"/>
</linearGradient>
<linearGradient id="paint2_linear_621_329" x1="146.291" y1="45.2898" x2="72.4928" y2="167.87" gradientUnits="userSpaceOnUse">
<stop stop-color="#845AE0"/>
<stop offset="1" stop-color="#B59CEC"/>
</linearGradient>
</defs>
</svg>
